<svg 
    xmlns="http://www.w3.org/2000/svg" 
    xmlns:xlink="http://www.w3.org/1999/xlink"
    preserveAspectRatio="xMidYMid meet"

    width="24" 
    height="24" 
    viewBox="0 0 24 24"
>
    <g transform="scale(1.1)">
        <!-- <g>
            <polygon 
                fill="#b5bac1"
                stroke-opacity="1"


                points="
                    0,24
                    0,0 
                    24,0 
                    24,24
                " 
            />
        </g> -->
        <path
            fill="none"
            stroke="#b5bac1"
            stroke-width="1.2"
            d="
                M 19 12
                Q 13.9 12, 14 12
                L 18 8
                Q 16 5.99 16 6
                Q 13 9.1 13 9
                L 12 8.75
                Q 9.9 8.75 10 8.75
                Q 4.9 11.9 5 12
                Q 4 20 4 20
                Q 10 20 10 20
                Q 12.9 15 13 15
                Q 17.1 14.5 17 14.5
                Q 19 12.01 19 12
                Q 14 12 14 12
            "
        />
    </g>
</svg>